# xmcd CD database file
#
# Track frame offsets:
#	150
#	23845
#	46077
#	66996
#	90632
#	117474
#	137174
#	157553
#	175990
#	189346
#	218645
#	242833
#	266033
#	290335
#	301984
#	314996
#
# Disc length: 4406 seconds
#
# Revision: 0
# Processed by: cddbd v1.5.2PL0 Copyright (c) Steve Scherf et al.
# Submitted via: CDex 1.70beta2
#
DISCID=e4113410
DTITLE=The Chicagoans - meet Tom Sanders - Laid back jazz
DYEAR=2000
DGENRE=Jazz
TTITLE0=As long as I live
TTITLE1=Serenade in blue
TTITLE2=From monday on
TTITLE3=Nobody's sweetheart
TTITLE4=New Orleans
TTITLE5=Sunday
TTITLE6=Can't we be friends
TTITLE7=Blue turning gray
TTITLE8=Sqing that music
TTITLE9=In a mellow tone
TTITLE10=I ain't gonna give nobody none to my yelly roll
TTITLE11=Beal street blues
TTITLE12=How come you do me like you do
TTITLE13=I got it bad and that ain't good
TTITLE14=Blue again
TTITLE15=Hindustan
EXTD=YEAR: 2000
EXTT0=
EXTT1=
EXTT2=
EXTT3=
EXTT4=
EXTT5=
EXTT6=
EXTT7=
EXTT8=
EXTT9=
EXTT10=
EXTT11=
EXTT12=
EXTT13=
EXTT14=
EXTT15=
PLAYORDER=
